<svg xmlns="http://www.w3.org/2000/svg" viewBox="0 0 1291.22 1291.22"><defs><style>.cls-1{fill:#fff;}.cls-2{fill:none;stroke:#fff;stroke-miterlimit:10;stroke-width:26px;}</style></defs><g id="Laag_2" data-name="Laag 2"><g id="Laag_1-2" data-name="Laag 1"><rect width="1291.22" height="1291.22" rx="223.99"/><path class="cls-1" d="M380.59,587.52c1-76.66,61.05-141.62,142.23-141.62,81.45,0,142.32,65.52,142,142.13-.34,78.18-60.72,141.61-142,141.6S381.68,666.41,380.59,587.52ZM522.54,704C586.67,704,638.87,652.09,639,588.15c.1-64.83-51.3-116.32-116.11-116.32S406.5,523.37,406.66,588.08C406.82,651.92,458.8,703.9,522.54,704Z"/><path class="cls-1" d="M354.4,316H936.72c6.51,1.2,13.21,1.8,19.5,3.72,25.22,7.68,44.85,32.3,44.75,63.91-.38,127.47-.15,254.95-.18,382.42a91.64,91.64,0,0,1-.69,11.94c-4.36,33.3-34.59,55.65-66,55.44-74.74-.47-149.48-.15-224.22-.15h-6v6.66q0,59.16,0,118.32c0,12.69-4.33,17-17.12,17H430q-36.7,0-73.41,0c-9.62,0-14.38-4.74-14.69-14.32-.05-1.49,0-3,0-4.49,0-39.61-.06-79.22.08-118.82,0-4.11-1-6.07-5.23-7.3A63.13,63.13,0,0,1,301,804c-7.93-12-10.67-25.21-10.67-39.33q.06-151.27,0-302.55c0-27.79-.22-55.58.14-83.37.36-27.44,19.91-52.37,46.36-59.61C342.54,317.58,348.53,317,354.4,316ZM341.85,804.39c.17-1.19.3-2,.39-2.82,1.73-17.34,9.07-31.74,22.32-43.16S393,742.76,410.18,742.8c69.57.19,139.15.07,208.72.09,8.15,0,16.33-.19,24.45.31,22.2,1.38,39,12,50.85,30.65,6.37,10,9.22,21.23,9.69,33.16,1.14.12,1.94.27,2.75.27q114.84,0,229.68,0a37.91,37.91,0,0,0,23.24-7.82C971,790.76,975.22,778.91,975.2,765q-.11-80.62,0-161.24,0-109.33,0-218.65c0-10.42-1.9-20.16-8.77-28.41-8.85-10.65-20.48-14.61-34-14.61q-210.21.09-420.42,0-76.89,0-153.79,0c-11,0-21.12,2.45-29.36,10.26-9.55,9.05-13,20.28-13,33.28q.19,189.2.1,378.39c0,3.16.14,6.33.45,9.47C317.79,787.26,328.69,800.64,341.85,804.39Zm26,144.79H678v-4.34q0-67.64,0-135.28c0-24.16-16.47-40.93-40.73-41q-114.35-.24-228.69,0c-9.35,0-18.22,2.18-25.64,8.15-10.7,8.6-15.21,19.92-15.14,33.67.24,44.43.09,88.86.09,133.29Z"/><line class="cls-2" x1="681.2" y1="760.85" x2="886.7" y2="540.76"/></g></g></svg>