<?xml version="1.0" encoding="utf-8"?>
<!-- Generator: Adobe Illustrator 24.3.0, SVG Export Plug-In . SVG Version: 6.00 Build 0)  -->
<svg version="1.1" id="Laag_1" xmlns="http://www.w3.org/2000/svg" xmlns:xlink="http://www.w3.org/1999/xlink" x="0px" y="0px"
	 viewBox="0 0 2000 2500" style="enable-background:new 0 0 2000 2500;" xml:space="preserve">
<style type="text/css">
	.st0{fill:#020202;}
	.st1{fill:#F9F9F9;}
	.st2{fill:#FCFCFC;}
</style>
<g>
	<path class="st0" d="M1792.81,1609.62H207.19c-41.79,0-75.66-33.88-75.66-75.66V786.39c0-41.79,33.88-75.66,75.66-75.66h1585.62
		c41.79,0,75.66,33.88,75.66,75.66v747.56C1868.47,1575.74,1834.6,1609.62,1792.81,1609.62z"/>
	<g>
		<path class="st1" d="M264.48,1384.03v-583.8h83.63v266.48h1.64l122.17-266.48h83.63l-113.97,233.68l135.29,350.12h-88.55
			l-95.11-259.1l-45.1,84.45v174.65H264.48z"/>
		<path class="st1" d="M662.97,1384.03v-583.8h122.17c26.78,0,49.61,4.1,68.47,12.3c18.86,8.2,34.3,19.14,46.33,32.8
			c12.02,13.67,20.63,29.39,25.83,47.15c5.19,17.77,7.79,36.22,7.79,55.35v21.32c0,15.86-1.23,29.25-3.69,40.18
			c-2.46,10.94-6.15,20.5-11.07,28.7c-9.3,15.31-23.51,28.43-42.64,39.36c19.68,9.3,34.16,22.96,43.46,41
			c9.29,18.04,13.94,42.64,13.94,73.79v32.8c0,51.39-12.44,90.74-37.31,118.07c-24.88,27.34-64.65,41-119.3,41H662.97z
			 M746.6,878.94v160.71h37.72c27.88,0,46.6-6.97,56.17-20.91c9.56-13.94,14.35-34.3,14.35-61.09c0-26.24-5.33-45.92-15.99-59.04
			s-29.93-19.68-57.81-19.68H746.6z M746.6,1113.45v186.95h36.08c16.94,0,30.2-2.46,39.77-7.38c9.56-4.92,16.81-11.75,21.73-20.5
			c4.92-8.74,7.92-19.13,9.02-31.16c1.09-12.02,1.64-25.14,1.64-39.36c0-14.76-0.82-27.6-2.46-38.54
			c-1.64-10.93-4.92-20.22-9.84-27.88c-5.47-7.65-12.85-13.25-22.14-16.81c-9.3-3.55-21.6-5.33-36.9-5.33H746.6z"/>
		<path class="st1" d="M1013.9,1384.03l130.37-583.8h69.7l130.37,583.8h-83.63l-24.6-125.45h-113.97l-24.6,125.45H1013.9z
			 M1220.53,1179.86l-41-211.55h-1.64l-41,211.55H1220.53z"/>
		<path class="st1" d="M1434.53,1384.03v-583.8H1569c98.39,0,147.59,57.13,147.59,171.37c0,34.44-5.33,63.69-15.99,87.73
			c-10.66,24.06-29.39,43.46-56.17,58.22l90.19,266.48h-88.55l-77.89-249.26h-50.02v249.26H1434.53z M1518.17,878.94v182.03h47.56
			c14.76,0,26.51-2.05,35.26-6.15c8.74-4.1,15.58-9.97,20.5-17.63c4.37-7.65,7.38-17.08,9.02-28.29c1.64-11.2,2.46-24.19,2.46-38.95
			c0-14.76-0.82-27.74-2.46-38.95c-1.64-11.2-4.92-20.91-9.84-29.11c-10.39-15.3-30.07-22.96-59.04-22.96H1518.17z"/>
	</g>
	<g>
		<path class="st2" d="M264.58,1522.79v-98.06h14.05v44.76h0.28l20.52-44.76h14.05l-19.14,39.25l22.72,58.81h-14.87l-15.98-43.52
			l-7.57,14.19v29.33H264.58z"/>
		<path class="st2" d="M343.91,1522.79v-98.06h41.87v13.22h-27.82v28.78h24.24v13.22h-24.24v28.78h27.82v14.05H343.91z"/>
		<path class="st2" d="M415.52,1522.79v-98.06h41.87v13.22h-27.82v28.78h24.24v13.22h-24.24v28.78h27.82v14.05H415.52z"/>
		<path class="st2" d="M487.14,1522.79v-98.06h21.07c3.86,0,7.25,0.51,10.19,1.51c2.94,1.01,5.6,2.8,7.99,5.37
			c2.39,2.57,4.04,5.58,4.96,9.02c0.92,3.44,1.38,8.1,1.38,13.98c0,4.41-0.25,8.13-0.76,11.16c-0.51,3.03-1.58,5.88-3.24,8.54
			c-1.93,3.21-4.5,5.72-7.71,7.51c-3.21,1.79-7.44,2.69-12.67,2.69h-7.16v38.29H487.14z M501.18,1437.95v33.33h6.75
			c2.84,0,5.05-0.41,6.61-1.24c1.56-0.83,2.71-1.97,3.44-3.44c0.73-1.38,1.17-3.08,1.31-5.1c0.14-2.02,0.21-4.27,0.21-6.75
			c0-2.29-0.05-4.48-0.14-6.54c-0.09-2.07-0.51-3.88-1.24-5.44c-0.74-1.56-1.84-2.75-3.31-3.58c-1.47-0.83-3.58-1.24-6.33-1.24
			H501.18z"/>
		<path class="st2" d="M610.12,1522.79v-98.06h20.52c4.5,0,8.33,0.69,11.5,2.07c3.17,1.38,5.76,3.21,7.78,5.51
			c2.02,2.3,3.46,4.94,4.34,7.92c0.87,2.99,1.31,6.08,1.31,9.3v3.58c0,2.66-0.21,4.91-0.62,6.75c-0.41,1.84-1.03,3.44-1.86,4.82
			c-1.56,2.57-3.95,4.78-7.16,6.61c3.31,1.56,5.74,3.86,7.3,6.89c1.56,3.03,2.34,7.16,2.34,12.39v5.51c0,8.63-2.09,15.24-6.27,19.83
			c-4.18,4.59-10.86,6.89-20.04,6.89H610.12z M624.17,1437.95v26.99h6.33c4.68,0,7.83-1.17,9.43-3.51
			c1.61-2.34,2.41-5.76,2.41-10.26c0-4.41-0.9-7.71-2.69-9.92c-1.79-2.2-5.03-3.31-9.71-3.31H624.17z M624.17,1477.34v31.4h6.06
			c2.84,0,5.07-0.41,6.68-1.24c1.6-0.83,2.82-1.97,3.65-3.44c0.83-1.47,1.33-3.21,1.51-5.23c0.18-2.02,0.28-4.22,0.28-6.61
			c0-2.48-0.14-4.63-0.41-6.47c-0.28-1.83-0.83-3.4-1.65-4.68c-0.92-1.28-2.16-2.22-3.72-2.82c-1.56-0.6-3.63-0.89-6.2-0.89H624.17z
			"/>
		<path class="st2" d="M689.44,1522.79v-98.06h41.87v13.22h-27.82v28.78h24.24v13.22h-24.24v28.78h27.82v14.05H689.44z"/>
		<path class="st2" d="M761.47,1522.79v-98.06h14.05v98.06H761.47z"/>
		<path class="st2" d="M809.26,1522.79v-98.06h13.5l21.21,59.08h0.28v-59.08h14.05v98.06h-13.22l-21.48-58.94h-0.28v58.94H809.26z"
			/>
		<path class="st2" d="M890.79,1447.87c0-3.95,0.69-7.44,2.07-10.47c1.38-3.03,3.21-5.55,5.51-7.57c2.2-1.93,4.7-3.4,7.51-4.41
			c2.8-1.01,5.62-1.51,8.47-1.51c2.84,0,5.67,0.51,8.47,1.51c2.8,1.01,5.35,2.48,7.64,4.41c2.2,2.02,3.99,4.54,5.37,7.57
			c1.38,3.03,2.07,6.52,2.07,10.47v4.96h-14.05v-4.96c0-3.4-0.94-5.9-2.82-7.51c-1.88-1.61-4.11-2.41-6.68-2.41
			c-2.57,0-4.8,0.8-6.68,2.41c-1.88,1.61-2.82,4.11-2.82,7.51v51.78c0,3.4,0.94,5.9,2.82,7.51c1.88,1.61,4.11,2.41,6.68,2.41
			c2.57,0,4.8-0.8,6.68-2.41c1.88-1.61,2.82-4.11,2.82-7.51v-18.46h-11.16v-12.39h25.2v30.85c0,4.13-0.69,7.67-2.07,10.6
			c-1.38,2.94-3.17,5.37-5.37,7.3c-2.3,2.02-4.84,3.54-7.64,4.54c-2.8,1.01-5.62,1.51-8.47,1.51c-2.85,0-5.67-0.51-8.47-1.51
			c-2.8-1.01-5.3-2.52-7.51-4.54c-2.3-1.93-4.13-4.36-5.51-7.3c-1.38-2.94-2.07-6.47-2.07-10.6V1447.87z"/>
		<path class="st2" d="M1010.88,1522.79l21.9-98.06h11.71l21.9,98.06h-14.05l-4.13-21.07h-19.14l-4.13,21.07H1010.88z
			 M1045.58,1488.5l-6.89-35.53h-0.28l-6.89,35.53H1045.58z"/>
		<path class="st2" d="M1093.37,1522.79v-98.06h13.5l21.21,59.08h0.28v-59.08h14.05v98.06h-13.22l-21.48-58.94h-0.28v58.94H1093.37z
			"/>
		<path class="st2" d="M1184.95,1522.79v-84.84h-16.25v-13.22h46.55v13.22H1199v84.84H1184.95z"/>
		<path class="st2" d="M1242.52,1522.79v-98.06h14.05v98.06H1242.52z"/>
		<path class="st2" d="M1337.13,1522.79v-98.06h22.59c16.53,0,24.79,9.59,24.79,28.78c0,5.78-0.9,10.7-2.69,14.74
			c-1.79,4.04-4.94,7.3-9.43,9.78l15.15,44.76h-14.87l-13.08-41.87h-8.4v41.87H1337.13z M1351.18,1437.95v30.57h7.99
			c2.48,0,4.45-0.34,5.92-1.03c1.47-0.69,2.62-1.67,3.44-2.96c0.73-1.28,1.24-2.87,1.51-4.75c0.28-1.88,0.41-4.06,0.41-6.54
			c0-2.48-0.14-4.66-0.41-6.54c-0.28-1.88-0.83-3.51-1.65-4.89c-1.75-2.57-5.05-3.86-9.92-3.86H1351.18z"/>
		<path class="st2" d="M1410.12,1522.79l21.9-98.06h11.71l21.9,98.06h-14.05l-4.13-21.07h-19.14l-4.13,21.07H1410.12z
			 M1444.83,1488.5l-6.89-35.53h-0.28l-6.89,35.53H1444.83z"/>
		<path class="st2" d="M1537.79,1494.83v6.06c0,3.03-0.57,5.9-1.72,8.61c-1.15,2.71-2.73,5.12-4.75,7.23
			c-2.02,2.11-4.39,3.79-7.09,5.03c-2.71,1.24-5.62,1.86-8.75,1.86c-2.66,0-5.37-0.37-8.12-1.1c-2.75-0.73-5.23-2.02-7.44-3.86
			c-2.2-1.83-4.02-4.2-5.44-7.09c-1.42-2.89-2.13-6.59-2.13-11.09v-53.99c0-3.21,0.55-6.2,1.65-8.95c1.1-2.75,2.66-5.14,4.68-7.16
			c2.02-2.02,4.43-3.6,7.23-4.75c2.8-1.15,5.9-1.72,9.3-1.72c6.61,0,11.98,2.16,16.11,6.47c2.02,2.11,3.6,4.61,4.75,7.51
			c1.15,2.89,1.72,6.04,1.72,9.43v5.51h-14.05v-4.68c0-2.75-0.78-5.14-2.34-7.16c-1.56-2.02-3.67-3.03-6.33-3.03
			c-3.49,0-5.81,1.08-6.96,3.24c-1.15,2.16-1.72,4.89-1.72,8.19v50.13c0,2.85,0.62,5.23,1.86,7.16c1.24,1.93,3.46,2.89,6.68,2.89
			c0.92,0,1.9-0.16,2.96-0.48c1.05-0.32,2.04-0.85,2.96-1.58c0.83-0.73,1.51-1.74,2.07-3.03c0.55-1.29,0.83-2.89,0.83-4.82v-4.82
			H1537.79z"/>
		<path class="st2" d="M1570.29,1522.79v-98.06h14.05v98.06H1570.29z"/>
		<path class="st2" d="M1664.08,1452.97h-14.05v-3.17c0-3.21-0.76-5.99-2.27-8.33c-1.51-2.34-4.06-3.51-7.64-3.51
			c-1.93,0-3.49,0.37-4.68,1.1c-1.19,0.74-2.16,1.65-2.89,2.75c-0.74,1.19-1.24,2.55-1.51,4.06c-0.28,1.52-0.41,3.1-0.41,4.75
			c0,1.93,0.07,3.54,0.21,4.82c0.14,1.29,0.48,2.43,1.03,3.44c0.55,1.01,1.35,1.88,2.41,2.62c1.05,0.74,2.5,1.47,4.34,2.2
			l10.74,4.27c3.12,1.19,5.65,2.59,7.57,4.2c1.93,1.61,3.44,3.47,4.54,5.58c1.01,2.2,1.7,4.71,2.07,7.51
			c0.37,2.8,0.55,5.99,0.55,9.57c0,4.13-0.41,7.97-1.24,11.5c-0.83,3.54-2.16,6.54-3.99,9.02c-1.93,2.57-4.46,4.59-7.58,6.06
			c-3.12,1.47-6.93,2.2-11.43,2.2c-3.4,0-6.57-0.6-9.5-1.79c-2.94-1.19-5.46-2.84-7.57-4.96c-2.11-2.11-3.79-4.57-5.03-7.37
			c-1.24-2.8-1.86-5.85-1.86-9.16v-5.23h14.05v4.41c0,2.57,0.76,4.89,2.27,6.95c1.52,2.07,4.06,3.1,7.64,3.1
			c2.39,0,4.25-0.34,5.58-1.03c1.33-0.69,2.36-1.67,3.1-2.96c0.73-1.29,1.17-2.82,1.31-4.61c0.14-1.79,0.21-3.79,0.21-5.99
			c0-2.57-0.09-4.68-0.28-6.33c-0.18-1.65-0.55-2.98-1.1-3.99c-0.64-1.01-1.49-1.84-2.55-2.48c-1.06-0.64-2.46-1.33-4.2-2.07
			l-10.05-4.13c-6.06-2.48-10.12-5.76-12.19-9.85c-2.07-4.08-3.1-9.2-3.1-15.36c0-3.67,0.5-7.16,1.51-10.47
			c1.01-3.31,2.52-6.15,4.54-8.54c1.93-2.39,4.38-4.29,7.37-5.71c2.98-1.42,6.54-2.13,10.67-2.13c3.49,0,6.68,0.64,9.57,1.93
			c2.89,1.29,5.39,2.98,7.51,5.1c4.22,4.41,6.34,9.46,6.34,15.15V1452.97z"/>
		<path class="st2" d="M1704.43,1522.79v-84.84h-16.25v-13.22h46.55v13.22h-16.25v84.84H1704.43z"/>
	</g>
</g>
</svg>
